<svg xmlns="http://www.w3.org/2000/svg" version="1.1" xmlns:xlink="http://www.w3.org/1999/xlink" xmlns:svgjs="http://svgjs.com/svgjs" width="1000" height="1000"><rect width="1000" height="1000" rx="200" ry="200" fill="#ffffff"></rect><g transform="matrix(25,0,0,25,100,100)"><svg xmlns="http://www.w3.org/2000/svg" version="1.1" xmlns:xlink="http://www.w3.org/1999/xlink" xmlns:svgjs="http://svgjs.com/svgjs" width="32" height="32"><svg width="32" height="32" viewBox="0 0 32 32" fill="none" xmlns="http://www.w3.org/2000/svg">
<g clip-path="url(#clip0_5_5)">
<rect width="32" height="32" rx="9" fill="white"></rect>
<path d="M0.3 11.31V5.07H10.47V27H3.48V11.31H0.3ZM12.9424 15.72C12.9424 12.26 13.6724 9.54 15.1324 7.56C16.6124 5.58 18.8824 4.59 21.9424 4.59C24.9824 4.59 27.2424 5.59 28.7224 7.59C30.2024 9.57 30.9424 12.28 30.9424 15.72C30.9424 19.18 30.2024 21.91 28.7224 23.91C27.2424 25.89 24.9824 26.88 21.9424 26.88C18.8824 26.88 16.6124 25.89 15.1324 23.91C13.6724 21.91 12.9424 19.18 12.9424 15.72ZM24.3724 15.72C24.3724 14.12 24.2124 12.92 23.8924 12.12C23.5724 11.3 22.9224 10.89 21.9424 10.89C20.9424 10.89 20.2824 11.3 19.9624 12.12C19.6424 12.92 19.4824 14.12 19.4824 15.72C19.4824 17.34 19.6424 18.56 19.9624 19.38C20.2824 20.18 20.9424 20.58 21.9424 20.58C22.9224 20.58 23.5724 20.18 23.8924 19.38C24.2124 18.56 24.3724 17.34 24.3724 15.72Z" fill="black"></path>
</g>
<defs>
<clipPath id="clip0_5_5">
<rect width="32" height="32" rx="9" fill="white"></rect>
</clipPath>
</defs>
</svg></svg></g></svg>